PathFileType	4	(X/Y/Z)	C:/Users/opensim2020/Desktop/walking_exp_matlab/subject06_walking23_straight_04.trc																																																																																																																																					
DataRate	CameraRate	NumFrames	NumMarkers	Units	OrigDataRate	OrigDataStartFrame	OrigNumFrames																																																																																																																																	
100	100	9	45	mm	100	2284	145																																																																																																																																	
Frame#	Time	LFHD			RFHD			LBHD			RBHD			C7			T10			CLAV			STRN			RBAK			LSHO			LUPA			LELB			LFRM			LWRA			LWRB			LFIN			RSHO			RUPA			RELB			RFRM			RWRA			RWRB			RFIN			LASI			RASI			LPSI			RPSI			LTHI			LKNE			LTIB			LANK			LHEE			LTOE			RTHI			RKNE			RTIB			RANK			RHEE			RTOE			*39			*40			*41			*42			*43			*44		
		X1	Y1	Z1	X2	Y2	Z2	X3	Y3	Z3	X4	Y4	Z4	X5	Y5	Z5	X6	Y6	Z6	X7	Y7	Z7	X8	Y8	Z8	X9	Y9	Z9	X10	Y10	Z10	X11	Y11	Z11	X12	Y12	Z12	X13	Y13	Z13	X14	Y14	Z14	X15	Y15	Z15	X16	Y16	Z16	X17	Y17	Z17	X18	Y18	Z18	X19	Y19	Z19	X20	Y20	Z20	X21	Y21	Z21	X22	Y22	Z22	X23	Y23	Z23	X24	Y24	Z24	X25	Y25	Z25	X26	Y26	Z26	X27	Y27	Z27	X28	Y28	Z28	X29	Y29	Z29	X30	Y30	Z30	X31	Y31	Z31	X32	Y32	Z32	X33	Y33	Z33	X34	Y34	Z34	X35	Y35	Z35	X36	Y36	Z36	X37	Y37	Z37	X38	Y38	Z38	X39	Y39	Z39	X40	Y40	Z40	X41	Y41	Z41	X42	Y42	Z42	X43	Y43	Z43	X44	Y44	Z44	X45	Y45	Z45
																																																																																																																																								
19	0.18	-563.65161	1636.45825	883.427	-551.85742	1636.75452	1015.23779	-695.74414	1582.0863	900.02649	-682.42273	1587.18811	1028.69995	-690.46741	1429.06421	963.13092	-725.15594	1100.92249	981.01154	-578.03717	1353.93005	961.74506	-538.19434	1178.63989	962.99072	-758.73438	1262.88269	1054.85168	-642.65833	1378.31775	801.10303	-688.08832	1179.88135	738.52905	-722.66241	1072.00696	734.59521	-740.92645	924.24243	709.16138	-705.1286	795.12433	736.78912	-771.13202	809.67706	712.84821	-757.43494	719.23242	706.37048	-620.93091	1393.51746	1122.95544	-650.94226	1204.87622	1228.51917	-633.88672	1088.08984	1250.52344	-573.2226	988.46356	1267.2356	-458.93646	896.68958	1225.13184	-502.68454	871.2403	1269.03528	-433.47092	824.64124	1266.12695	-546.25684	943.64038	877.85217	-555.00378	946.63977	1096.14917	-706.39099	963.37512	894.42456	-706.62469	972.91785	1063.51587	-543.9054	631.10223	811.08881	-481.81833	481.95227	845.95911	-436.54572	232.88405	854.95172	-375.42358	70.30912	896.44177	-405.75711	44.2868	944.52704	-229.65176	87.80646	897.13586	-657.66852	617.24829	1141.1626	-685.28302	492.68079	1120.48145	-820.52838	255.35715	1112.91382	-899.3681	86.58881	1064.39819	-945.41211	71.89197	1020.34149	-756.17676	30.22467	1063.98218	-658.55139	1679.39172	948.10327	NaN	NaN	NaN	NaN	NaN	NaN	NaN	NaN	NaN	NaN	NaN	NaN	NaN	NaN	NaN
20	0.19	-550.01715	1634.95447	883.16357	-538.04443	1635.23364	1014.88062	-681.93518	1580.31873	899.79059	-668.22888	1585.28284	1028.18616	-676.44867	1427.35522	962.69525	-710.88403	1099.0647	980.36841	-563.95111	1352.3208	961.5202	-523.85449	1177.03552	962.87946	-744.82428	1261.18201	1054.25989	-628.42108	1376.49646	800.62817	-675.41211	1178.7002	737.86328	-711.39185	1071.17798	733.94128	-731.39685	923.6217	708.57312	-697.0285	794.1994	736.34979	-762.95044	809.37964	712.26984	-750.17175	718.76331	706.07086	-607.10632	1391.69592	1122.68335	-636.58173	1202.74585	1227.91089	-619.27899	1086.18286	1249.99951	-557.28363	987.52661	1266.27881	-441.64246	898.06818	1223.86926	-485.0224	871.53174	1267.38635	-414.88226	826.40417	1264.57019	-531.36743	942.10565	878.14587	-541.35931	944.80286	1096.32349	-691.58966	961.68658	893.10706	-692.9729	970.97296	1062.25195	-528.10956	630.01471	810.80103	-467.76782	480.85352	845.59052	-418.75101	232.099	854.83624	-355.77863	70.41134	896.85345	-385.67963	43.76385	945.02185	-210.45924	90.28823	897.67456	-645.03241	615.96704	1141.25098	-672.82794	491.20786	1120.74097	-813.54114	256.73108	1113.50464	-897.30762	90.0942	1065.62292	-943.93549	76.84707	1021.91479	-755.97144	30.09442	1064.10815	-644.90283	1677.63892	947.87756	NaN	NaN	NaN	NaN	NaN	NaN	NaN	NaN	NaN	NaN	NaN	NaN	NaN	NaN	NaN
21	0.2	-536.22858	1633.73816	882.80676	-524.32916	1633.94849	1014.60388	-668.03156	1578.75806	899.43805	-654.37512	1583.6886	1027.875	-662.45471	1425.87109	962.17108	-696.52979	1097.54822	979.76733	-549.7301	1350.94873	961.10645	-509.43039	1175.67529	962.70197	-730.8667	1259.63184	1053.37219	-614.09839	1374.97559	800.07648	-662.44849	1177.68713	737.24005	-699.64325	1070.59644	733.26154	-721.2417	923.3067	707.70227	-688.33655	793.55328	736.11102	-753.99896	809.29919	711.49823	-741.94647	718.50439	705.70313	-593.31158	1390.12744	1122.31335	-622.72839	1200.94763	1227.14355	-605.05469	1084.55066	1249.23694	-541.96027	986.70392	1265.20496	-425.14838	899.27881	1222.60681	-468.08029	871.82501	1265.87683	-397.25461	827.94763	1263.05591	-516.32208	940.93811	878.1402	-527.74908	943.48895	1096.5094	-677.06287	960.50116	892.05475	-678.95215	969.1723	1060.92053	-511.74295	629.45459	811.0166	-452.87601	480.46231	845.23187	-403.0228	231.2637	854.69336	-340.31812	69.55495	897.20709	-370.37231	42.64115	945.242	-195.01245	90.08827	898.52765	-631.3905	614.51337	1141.06995	-659.45782	489.73178	1120.80823	-805.86322	258.36209	1114.13452	-894.8338	94.35318	1067.21069	-942.31659	83.00884	1023.71869	-755.73779	29.94941	1064.30432	-631.14679	1676.14758	947.49982	NaN	NaN	NaN	NaN	NaN	NaN	NaN	NaN	NaN	NaN	NaN	NaN	NaN	NaN	NaN
22	0.21	-522.31171	1632.62817	882.45599	-510.50031	1632.85315	1014.24457	-654.05853	1577.49829	898.97662	-640.45837	1582.3938	1027.39453	-648.36951	1424.63538	961.5271	-681.99402	1096.20935	978.96844	-535.5791	1349.84937	960.66034	-494.98404	1174.60449	962.4101	-716.87	1258.24609	1052.34448	-599.74634	1373.78674	799.49365	-648.99908	1177.01672	736.42188	-687.30493	1070.31104	732.5152	-710.21527	923.09912	707.30444	-678.69421	793.13818	735.54584	-744.26599	809.43195	711.11298	-732.87347	718.53564	705.30963	-579.64771	1388.91125	1121.86255	-609.2215	1199.49365	1226.12817	-591.17175	1083.27869	1248.23767	-527.30255	986.05823	1264.03552	-409.50864	900.29669	1221.33545	-452.30484	871.94531	1264.08606	-380.80493	829.19482	1261.44299	-501.03653	940.2146	877.87317	-513.71106	942.28802	1096.44153	-661.5368	959.37549	890.85309	-664.52863	967.61438	1059.73401	-495.36963	629.41388	811.5921	-437.01379	480.52255	845.15796	-389.40747	230.15675	854.37537	-328.79407	67.55869	897.2619	-359.52615	40.90879	944.86249	-183.52567	87.18352	900.11566	-617.03998	613.15424	1140.95642	-644.87152	488.2869	1120.90735	-797.31604	260.4187	1114.76172	-891.76019	99.36017	1068.74243	-939.76501	89.99006	1025.5155	-755.75482	30.02433	1064.58691	-617.42352	1674.92102	947.18378	NaN	NaN	NaN	NaN	NaN	NaN	NaN	NaN	NaN	NaN	NaN	NaN	NaN	NaN	NaN
23	0.22	-508.40015	1631.95093	882.06488	-496.7222	1631.99158	1013.87079	-640.07831	1576.58936	898.41467	-626.67078	1581.34521	1026.85706	-634.25238	1423.58972	960.7489	-667.34802	1095.09119	977.99976	-521.28479	1348.97729	960.12115	-480.35031	1173.8219	962.06812	-702.82562	1257.13086	1051.16174	-585.22534	1372.95935	798.83179	-635.67804	1176.66687	735.85297	-674.3866	1070.23486	731.66083	-698.57642	923.30078	706.37097	-668.0022	793.11481	734.96729	-733.68054	809.82544	710.32898	-723.00391	718.88318	704.75964	-565.98785	1387.96643	1121.24268	-596.0611	1198.44714	1225.04736	-577.72021	1082.29919	1247.02661	-513.22943	985.54303	1262.63074	-394.77762	901.11737	1220.0614	-437.36191	871.99628	1262.36414	-365.29535	830.23956	1260.01782	-485.46198	939.78516	877.42969	-499.41376	941.38751	1096.19507	-646.19501	958.52466	890.03882	-649.82373	966.41003	1058.625	-478.86569	629.64301	812.33258	-420.35419	480.82251	845.01392	-377.32748	228.4489	854.13202	-320.69263	64.71866	897.2019	-352.91849	39.09334	943.89996	-175.39783	81.89639	902.15662	-601.81714	611.96118	1140.89673	-628.92694	486.73367	1120.90906	-788.17914	263.24268	1115.42224	-887.95117	105.22021	1070.07617	-936.1485	98.0723	1026.99353	-755.53339	29.94778	1064.71375	-603.61444	1673.98645	946.73047	NaN	NaN	NaN	NaN	NaN	NaN	NaN	NaN	NaN	NaN	NaN	NaN	NaN	NaN	NaN
24	0.23	-494.38589	1631.45361	881.62115	-482.92383	1631.41394	1013.50671	-626.01282	1575.94629	897.70325	-613.23792	1580.67285	1026.42468	-620.22888	1422.84729	959.88538	-652.43506	1094.18616	976.72534	-507.00641	1348.41223	959.55432	-465.59665	1173.34277	961.64185	-688.77869	1256.17395	1049.80676	-570.66022	1372.44019	798.07208	-621.37054	1176.54395	734.79004	-660.95245	1070.37695	730.74329	-686.01379	923.53583	705.85327	-656.93176	793.21387	734.62128	-722.05029	810.34949	709.65961	-712.07233	719.29803	704.22748	-552.50348	1387.34631	1120.52844	-583.16553	1197.68567	1223.85132	-564.59186	1081.56189	1245.5531	-499.78592	985.14478	1261.16248	-380.81491	901.64935	1218.79541	-423.28864	872.01288	1260.7467	-350.92877	831.02484	1258.68213	-469.50491	939.65302	876.68158	-484.57489	940.76276	1095.62341	-630.64459	957.83575	889.04956	-634.86823	965.54254	1057.5658	-462.13672	630.07355	813.15875	-403.93866	481.03159	844.78314	-366.78867	226.70224	854.60425	-315.18958	61.97082	898.6106	-349.21466	39.96184	945.85529	-169.47162	70.49768	903.13977	-585.79797	610.89154	1140.90564	-611.74884	485.31464	1121.2218	-777.80029	266.40964	1115.82568	-883.24371	112.16216	1071.08069	-931.35144	107.56076	1027.93225	-755.2793	29.85393	1064.68042	-589.7113	1673.31604	946.14832	NaN	NaN	NaN	NaN	NaN	NaN	NaN	NaN	NaN	NaN	NaN	NaN	NaN	NaN	NaN
25	0.24	-480.24487	1631.49829	881.0965	-469.04532	1631.37915	1013.06238	-611.84741	1575.68054	896.85712	-599.31116	1580.28833	1025.57422	-606.32306	1422.55725	958.76947	-637.39685	1093.625	975.18341	-492.72885	1348.31445	958.97272	-450.80441	1173.29041	961.19641	-674.9964	1255.61914	1048.21399	-555.92444	1372.42334	797.13751	-607.14398	1176.74829	733.85229	-647.04346	1070.67163	729.64716	-672.71832	923.92755	705.02502	-644.46289	793.58447	734.11029	-709.59363	811.01221	709.00415	-700.11609	719.98486	703.57788	-539.10394	1387.03491	1119.7594	-570.46289	1197.1792	1222.61462	-551.88702	1081.0708	1243.98669	-486.87143	984.81879	1259.61133	-367.53381	901.94183	1217.50952	-410.08749	871.82074	1259.02014	-337.48798	831.40228	1257.39465	-453.62634	939.71814	875.80927	-469.28931	940.56921	1094.98523	-615.13715	957.73993	887.94641	-619.90601	965.12073	1056.59534	-445.36316	630.89722	813.47455	-388.67807	481.25388	843.76758	-356.8009	226.12915	856.23816	-311.47455	61.78695	898.37854	-346.00247	42.40117	945.97833	-164.23746	58.17	904.05762	-568.98279	609.84656	1140.80005	-593.3017	483.90247	1121.77393	-766.10413	270.23141	1116.02881	-877.23669	120.12037	1071.66235	-924.82391	118.27596	1028.45618	-754.97424	29.82991	1064.46521	-575.85254	1673.17163	945.53479	NaN	NaN	NaN	NaN	NaN	NaN	NaN	NaN	NaN	NaN	NaN	NaN	NaN	NaN	NaN
26	0.25	-466.14505	1632.49475	880.5191	-455.31235	1632.3783	1012.58521	-597.6048	1576.15088	895.94244	-585.42175	1580.69519	1024.69031	-592.37665	1423.27612	957.49951	-622.52295	1093.77661	973.99115	-478.52649	1349.11853	958.27582	-436.43912	1173.92407	960.67047	-661.33527	1255.80078	1046.12256	-541.1366	1372.95776	796.04895	-592.1687	1177.24866	732.64703	-632.47772	1071.32117	728.57367	-658.68292	924.59155	704.16699	-631.26666	794.1413	733.69495	-696.20654	811.86908	708.31616	-687.06317	720.83295	703.02155	-525.89478	1387.31934	1119.05945	-557.87378	1196.99182	1221.25061	-539.54938	1080.8512	1242.39099	-474.62482	984.62085	1257.90808	-354.90811	902.08142	1216.40637	-397.87283	871.58331	1257.1864	-325.17319	831.48828	1255.96631	-438.04724	940.41083	875.05951	-453.92017	940.78217	1094.16919	-599.77612	958.56982	887.12866	-604.83484	965.08136	1055.87109	-429.82666	632.64246	812.82178	-374.42734	482.51633	842.18671	-346.23212	227.23152	855.22546	-306.64319	61.48808	897.43872	-342.6824	44.07558	944.56061	-159.90311	52.13972	904.55896	-551.28815	608.92682	1140.68799	-573.33911	482.43045	1122.35303	-752.8847	275.0484	1115.72375	-869.31012	129.32442	1071.59839	-915.75482	130.79265	1028.24304	-754.25781	29.86442	1063.7677	-562.06665	1673.67761	944.75964	NaN	NaN	NaN	NaN	NaN	NaN	NaN	NaN	NaN	NaN	NaN	NaN	NaN	NaN	NaN
27	0.26	-452.05228	1634.26172	879.91473	-441.58218	1634.0824	1012.01324	-583.40723	1577.48718	894.8175	-571.71271	1582.07251	1023.87531	-578.26923	1424.82739	956.17218	-607.93933	1094.83496	973.02362	-464.54416	1350.57239	957.52881	-422.05612	1175.33716	960.10168	-647.59088	1256.76038	1043.88403	-526.18475	1374.06067	794.84125	-576.93561	1178.26501	731.53033	-617.27527	1072.24182	727.34198	-643.69397	925.55841	703.24078	-616.61298	795.16968	733.83264	-681.67883	812.93555	707.49091	-672.92761	722.08429	702.38177	-512.68256	1388.27527	1118.41772	-545.4165	1197.37219	1219.61731	-527.60785	1081.14539	1240.72339	-463.03784	984.61963	1256.11621	-343.53738	901.92993	1214.92358	-386.57336	871.54498	1255.62708	-314.01459	831.3175	1254.72339	-422.51663	942.05475	874.33868	-438.76749	941.55713	1093.39038	-584.6452	960.39728	886.75208	-589.8407	965.51807	1055.58167	-415.21579	635.21191	811.29004	-360.22903	484.67859	840.35889	-336.7403	229.07936	853.02588	-302.41553	61.66705	896.27551	-340.06604	45.76303	943.06061	-156.55598	47.74518	904.09698	-532.67438	608.49316	1140.90991	-551.81769	481.37476	1123.75854	-737.03473	280.22372	1115.52527	-858.94769	139.73055	1070.67859	-903.49219	144.29332	1026.70142	-753.30475	29.91653	1062.81555	-548.3678	1675.16907	943.91687	NaN	NaN	NaN	NaN	NaN	NaN	NaN	NaN	NaN	NaN	NaN	NaN	NaN	NaN	NaN
